<svg width="29" height="28" viewBox="0 0 29 28" fill="none" xmlns="http://www.w3.org/2000/svg">
<circle cx="14.5" cy="14.0002" r="14" fill="#A49F8E"/>
<path d="M14.0352 8.61548L13.5273 9.0979C13.4004 9.22485 13.4004 9.42798 13.5273 9.52954L17.4629 13.4651H8.80469C8.62695 13.4651 8.5 13.6174 8.5 13.7698V14.4807C8.5 14.6584 8.62695 14.7854 8.80469 14.7854H17.4629L13.5273 18.7463C13.4004 18.8479 13.4004 19.051 13.5273 19.178L14.0352 19.6604C14.1367 19.7874 14.3398 19.7874 14.4668 19.6604L19.7734 14.3538C19.9004 14.2268 19.9004 14.0491 19.7734 13.9221L14.4668 8.61548C14.3398 8.48853 14.1367 8.48853 14.0352 8.61548Z" fill="white"/>
</svg>
