<?xml version="1.0" encoding="UTF-8"?>
<svg xmlns="http://www.w3.org/2000/svg" xmlns:xlink="http://www.w3.org/1999/xlink" width="30px" height="31px" viewBox="0 0 30 30" version="1.1">
<g id="surface1">
<path style=" stroke:none;fill-rule:nonzero;fill:rgb(1.960784%,19.607843%,30.588235%);fill-opacity:1;" d="M 29.410156 14.421875 L 29.410156 15.578125 C 29.410156 23.382812 22.960938 29.710938 15 29.710938 C 7.039062 29.710938 0.589844 23.382812 0.589844 15.578125 L 0.589844 14.421875 C 0.589844 6.617188 7.039062 0.289062 15 0.289062 C 22.960938 0.289062 29.410156 6.617188 29.410156 14.421875 Z M 29.410156 14.421875 "/>
<path style=" stroke:none;fill-rule:nonzero;fill:rgb(100%,100%,100%);fill-opacity:1;" d="M 15.773438 11.121094 L 19.816406 14.90625 C 19.929688 15.019531 20 15.152344 20 15.3125 C 20 15.445312 19.929688 15.582031 19.816406 15.695312 L 15.773438 19.480469 C 15.566406 19.683594 15.199219 19.683594 14.992188 19.457031 C 14.785156 19.253906 14.785156 18.894531 15.015625 18.691406 L 18.070312 15.851562 L 10.257812 15.851562 C 9.9375 15.851562 9.707031 15.605469 9.707031 15.3125 C 9.707031 14.996094 9.9375 14.769531 10.257812 14.769531 L 18.070312 14.769531 L 15.015625 11.910156 C 14.785156 11.707031 14.785156 11.34375 14.992188 11.140625 C 15.199219 10.917969 15.542969 10.917969 15.773438 11.121094 Z M 15.773438 11.121094 "/>
<path style="fill:none;stroke-width:1;stroke-linecap:butt;stroke-linejoin:miter;stroke:rgb(1.960784%,19.607843%,30.588235%);stroke-opacity:1;stroke-miterlimit:4;" d="M 49.997266 24.997917 L 49.997266 27.002083 C 49.997266 40.530208 39.033594 51.498958 25.5 51.498958 C 11.966406 51.498958 1.002734 40.530208 1.002734 27.002083 L 1.002734 24.997917 C 1.002734 11.469792 11.966406 0.501042 25.5 0.501042 C 39.033594 0.501042 49.997266 11.469792 49.997266 24.997917 Z M 49.997266 24.997917 " transform="matrix(0.588235,0,0,0.576923,0,0)"/>
</g>
</svg>
