<svg width="51" height="52" viewBox="0 0 51 52" fill="none" xmlns="http://www.w3.org/2000/svg">
<path d="M50 25.0002V27.0002C50 40.5312 39.031 51.5002 25.5 51.5002C11.969 51.5002 1 40.5312 1 27.0002V25.0002C1 11.4693 11.969 0.500244 25.5 0.500244C39.031 0.500244 50 11.4693 50 25.0002Z" fill="#338C98"/>
<path d="M26.8125 19.2737L33.6875 25.8362C33.8828 26.0315 34 26.2659 34 26.5393C34 26.7737 33.8828 27.0081 33.6875 27.2034L26.8125 33.7659C26.4609 34.1174 25.8359 34.1174 25.4844 33.7268C25.1328 33.3752 25.1328 32.7502 25.5234 32.3987L30.7188 27.4768H17.4375C16.8906 27.4768 16.5 27.0471 16.5 26.5393C16.5 25.9924 16.8906 25.6018 17.4375 25.6018H30.7188L25.5234 20.6409C25.1328 20.2893 25.1328 19.6643 25.4844 19.3127C25.8359 18.9221 26.4219 18.9221 26.8125 19.2737Z" fill="white"/>
<path d="M50 25.0002V27.0002C50 40.5312 39.031 51.5002 25.5 51.5002C11.969 51.5002 1 40.5312 1 27.0002V25.0002C1 11.4693 11.969 0.500244 25.5 0.500244C39.031 0.500244 50 11.4693 50 25.0002Z" stroke="#338C98"/>
</svg>
