<svg width="51" height="52" viewBox="0 0 51 52" fill="none" xmlns="http://www.w3.org/2000/svg">
<path d="M49.5 25V27C49.5 40.2548 38.7548 51 25.5 51C12.2452 51 1.5 40.2548 1.5 27V25C1.5 11.7452 12.2452 1 25.5 1C38.7548 1 49.5 11.7452 49.5 25Z" fill="white"/>
<path d="M26.8125 19.2734L33.6875 25.8359C33.8828 26.0312 34 26.2656 34 26.5391C34 26.7734 33.8828 27.0078 33.6875 27.2031L26.8125 33.7656C26.4609 34.1172 25.8359 34.1172 25.4844 33.7266C25.1328 33.375 25.1328 32.75 25.5234 32.3984L30.7188 27.4766H17.4375C16.8906 27.4766 16.5 27.0469 16.5 26.5391C16.5 25.9922 16.8906 25.6016 17.4375 25.6016H30.7188L25.5234 20.6406C25.1328 20.2891 25.1328 19.6641 25.4844 19.3125C25.8359 18.9219 26.4219 18.9219 26.8125 19.2734Z" fill="#05324E"/>
<path d="M49.5 25V27C49.5 40.2548 38.7548 51 25.5 51C12.2452 51 1.5 40.2548 1.5 27V25C1.5 11.7452 12.2452 1 25.5 1C38.7548 1 49.5 11.7452 49.5 25Z" stroke="#05324E" stroke-width="2"/>
</svg>
