<?xml version="1.0" encoding="UTF-8"?>
<svg xmlns="http://www.w3.org/2000/svg" xmlns:xlink="http://www.w3.org/1999/xlink" width="30px" height="31px" viewBox="0 0 30 30" version="1.1">
<g id="surface1">
<path style=" stroke:none;fill-rule:nonzero;fill:rgb(100%,100%,100%);fill-opacity:1;" d="M 29.117188 14.421875 L 29.117188 15.578125 C 29.117188 23.222656 22.796875 29.421875 15 29.421875 C 7.203125 29.421875 0.882812 23.222656 0.882812 15.578125 L 0.882812 14.421875 C 0.882812 6.777344 7.203125 0.578125 15 0.578125 C 22.796875 0.578125 29.117188 6.777344 29.117188 14.421875 Z M 29.117188 14.421875 "/>
<path style=" stroke:none;fill-rule:nonzero;fill:rgb(1.960784%,19.607843%,30.588235%);fill-opacity:1;" d="M 15.773438 11.121094 L 19.816406 14.90625 C 19.929688 15.019531 20 15.152344 20 15.3125 C 20 15.445312 19.929688 15.582031 19.816406 15.695312 L 15.773438 19.480469 C 15.566406 19.683594 15.199219 19.683594 14.992188 19.457031 C 14.785156 19.253906 14.785156 18.894531 15.015625 18.691406 L 18.070312 15.851562 L 10.257812 15.851562 C 9.9375 15.851562 9.707031 15.605469 9.707031 15.3125 C 9.707031 14.996094 9.9375 14.769531 10.257812 14.769531 L 18.070312 14.769531 L 15.015625 11.90625 C 14.785156 11.707031 14.785156 11.34375 14.992188 11.140625 C 15.199219 10.917969 15.542969 10.917969 15.773438 11.121094 Z M 15.773438 11.121094 "/>
<path style="fill:none;stroke-width:2;stroke-linecap:butt;stroke-linejoin:miter;stroke:rgb(1.960784%,19.607843%,30.588235%);stroke-opacity:1;stroke-miterlimit:4;" d="M 49.499219 24.997917 L 49.499219 27.002083 C 49.499219 40.252604 38.754687 50.997917 25.5 50.997917 C 12.245312 50.997917 1.500781 40.252604 1.500781 27.002083 L 1.500781 24.997917 C 1.500781 11.747396 12.245312 1.002083 25.5 1.002083 C 38.754687 1.002083 49.499219 11.747396 49.499219 24.997917 Z M 49.499219 24.997917 " transform="matrix(0.588235,0,0,0.576923,0,0)"/>
</g>
</svg>
